<svg width="18" height="18" viewBox="0 0 18 18" fill="none" xmlns="http://www.w3.org/2000/svg">
<path d="M4.74601 8.44898V6.99198C5.61009 7.60601 6.81485 7.52782 7.58939 6.75326C8.89237 5.45028 8.32688 2.88584 8.32688 2.88584C8.32688 2.88584 7.43187 2.68882 6.43061 2.79594C6.06937 1.179 4.22465 0 4.22465 0C4.22465 0 2.37991 1.179 2.0183 2.79594C1.01724 2.68882 0.122032 2.88584 0.122032 2.88584C0.122032 2.88584 -0.443267 5.45028 0.85952 6.75326C1.63407 7.52781 2.83902 7.60605 3.7031 6.99198V8.44898H4.74601Z" fill="#50E54C"/>
<path d="M14.2973 8.44898V6.99198C15.1613 7.60601 16.3661 7.52782 17.1406 6.75326C18.4436 5.45028 17.8781 2.88584 17.8781 2.88584C17.8781 2.88584 16.9831 2.68882 15.9818 2.79594C15.6206 1.179 13.7757 0 13.7757 0C13.7757 0 11.931 1.179 11.5694 2.79594C10.5684 2.68882 9.67322 2.88584 9.67322 2.88584C9.67322 2.88584 9.10794 5.45028 10.4107 6.75326C11.1852 7.52781 12.3901 7.60605 13.2542 6.99198V8.44898H14.2973Z" fill="#50E54C"/>
<path d="M0.859501 16.3043C1.63403 17.0791 2.83895 17.1571 3.70301 16.5431V18H4.74609V16.5431C5.61015 17.1571 6.81489 17.0789 7.58941 16.3043C8.89236 15.0014 8.32689 12.437 8.32689 12.437C8.32689 12.437 7.43189 12.24 6.43066 12.3471C6.06924 10.73 4.22455 9.55104 4.22455 9.55104C4.22455 9.55104 2.37985 10.73 2.01826 12.3469C1.01722 12.2398 0.122029 12.4368 0.122029 12.4368C0.122029 12.437 -0.443257 15.0014 0.859501 16.3043Z" fill="#50E54C"/>
<path d="M10.4108 16.3043C11.1853 17.0791 12.3903 17.1571 13.2543 16.5431L13.2542 18H14.2972V16.5431C15.1613 17.1571 16.3661 17.0789 17.1406 16.3043C18.4436 15.0014 17.8781 12.437 17.8781 12.437C17.8781 12.437 16.9831 12.24 15.9818 12.3471C15.6206 10.73 13.7757 9.55104 13.7757 9.55104C13.7757 9.55104 11.931 10.73 11.5694 12.3469C10.5683 12.2398 9.67313 12.4368 9.67313 12.4368C9.67332 12.437 9.10784 15.0014 10.4108 16.3043H10.4108Z" fill="#50E54C"/>
</svg>
