<svg width="21" height="16" viewBox="0 0 21 16" fill="none" xmlns="http://www.w3.org/2000/svg">
<path d="M20.193 14.5281C19.693 14.5281 19.8835 14.5413 19.5 14.3711C18.8455 14.0799 18.3457 12.8751 17.8384 13.1049C17.285 13.3556 17.1368 13.4312 16.5 13.5C16.1662 12.8863 16.2075 12.2292 14.7002 12.1058C13.6224 9.90299 12.1117 10.2306 11.1582 10.147V9.11951L12.6024 7.65777C12.8983 7.98562 13.4935 8.34352 14.7002 8.51394C14.9656 8.55134 15.2301 8.57003 15.4917 8.57003C17.329 8.57003 19.0263 7.66649 19.9567 6.14169C20.4064 5.40448 20.682 4.55023 20.7774 3.5638V1.55831C20.7774 1.41646 20.7012 1.28616 20.5788 1.21755C20.4563 1.14894 20.3063 1.15337 20.1878 1.22854C20.1694 1.24029 18.324 2.39502 16.1662 2.39502C16.1039 2.39309 14.6579 2.38287 13.5436 3.49208C12.7575 4.27498 12.3482 5.40406 12.3177 6.84345L11.1577 8.01763L11.1575 7.7821V1.71913L12.1991 0.664848C12.3495 0.512585 12.3495 0.266455 12.1991 0.114197C12.049 -0.0380657 11.8051 -0.0380657 11.655 0.114197L10.7728 1.00718L9.8906 0.114197C9.74055 -0.0380657 9.49663 -0.0380657 9.34658 0.114197C9.19616 0.26646 9.19616 0.51259 9.34658 0.664848L10.3882 1.71913V7.21429L9.22681 6.7442C9.08171 2.39154 5.42359 2.33702 5.3859 2.33702C3.62015 2.33702 2.16803 1.25708 2.1534 1.24613C2.03668 1.15804 1.88092 1.14397 1.75048 1.21028C1.62043 1.276 1.53798 1.41073 1.53798 1.55798C1.53798 4.38165 2.71897 6.00814 2.78502 6.09567C3.94826 7.46894 5.38878 7.83343 6.59088 7.83343C7.64006 7.83343 8.50516 7.55646 8.84673 7.42906L10.3882 8.05298V10.1519C8.30155 10.3851 6.37873 12.4101 5.95317 12.8863C5.43563 12.8073 4.9078 12.8798 4.42223 13.1049C4.12289 13.2435 3.88431 13.4376 3.65349 13.6249C3.44041 13.7982 3.23876 13.9618 3.01198 14.0595C2.7395 14.1775 2.44949 14.2621 2.14234 14.3513C1.93574 14.4113 1.85141 14.3006 1.64939 14.3711C1.46831 14.4343 1.21981 14.5793 0.956654 14.7327C0.752336 14.8518 0.497556 15.0002 0.384463 15.0384C0.227557 15.0918 0.122069 15.2406 0.122069 15.4077L0 15.0915C0 15.2216 0.0641704 15.3434 0.171565 15.4159C0.235735 15.459 0.309995 15.4808 0.384641 15.4808C0.435104 15.4808 0.485372 15.471 0.533168 15.4504C1.86683 14.8857 4.08917 15.1945 5.5 15.0384C6.1653 14.9644 6.89859 14.9823 7.74294 15.0918C8.05275 15.1319 8.36158 15.197 8.68911 15.2658C9.13507 15.3597 9.59644 15.4566 10.0609 15.4855L10.281 15.5C10.8525 15.5382 11.5001 15.5813 12.0845 15.5C12.5927 15.4291 13.0575 15.2496 13.5067 15.0762C13.6948 15.0033 13.8826 14.9308 14.0726 14.8674C14.6558 14.6724 14.4016 15.3153 15.025 15.297C15.239 15.2909 15.4468 15.2947 15.6522 15.2986C16.1087 15.3067 16.5811 15.3157 17.0874 15.2145C17.3555 15.1604 17.6011 15.0638 17.8384 14.9703C17.9391 14.9302 18.04 14.8905 18.1415 14.8551L17.3299 15.4077C17.7978 15.2437 18.7238 15.6894 19.193 15.5281C19.7005 15.354 20.352 15.0099 20.193 14.5281Z" fill="#671416"/>
</svg>
