<svg width="52" height="46" viewBox="0 0 52 46" fill="none" xmlns="http://www.w3.org/2000/svg">
<path fill-rule="evenodd" clip-rule="evenodd" d="M23.3184 1.2514C23.4032 1.33998 24.615 2.94991 26.0122 4.82838C27.4102 6.70546 29.0547 8.92574 29.6678 9.75999C30.2809 10.5943 31.6904 12.5453 32.8015 14.0952C33.912 15.6451 35.7858 18.3028 36.9653 20.0027C38.1454 21.7012 39.8532 24.1886 40.7602 25.5307C41.6659 26.8714 42.7584 28.5057 43.1846 29.1614C43.6122 29.8171 44.515 31.2317 45.1892 32.3045C45.8641 33.3773 46.9458 35.1574 47.5927 36.261C48.2403 37.3631 49.2099 39.1439 49.7468 40.2174C50.2837 41.2902 50.8558 42.5583 51.0168 43.0355C51.1785 43.5126 51.2791 43.975 51.2425 44.065C51.1842 44.2004 51.0182 44.2143 50.2298 44.1466C49.5663 44.0894 49.0316 43.9625 48.4214 43.7163C47.9456 43.5244 47.2541 43.1722 46.8854 42.9329C46.5167 42.6937 45.7944 42.1056 45.2797 41.6278C44.7651 41.1507 43.9845 40.3444 43.5454 39.8386C43.1055 39.3315 42.4946 38.5998 42.1848 38.2127C41.8765 37.8248 40.876 36.4842 39.961 35.2321C39.046 33.98 37.6962 32.1503 36.9609 31.1675C36.2264 30.1833 35.1964 28.8663 34.6739 28.2413C34.1514 27.6149 33.1918 26.5484 32.5421 25.8711C31.893 25.1924 30.7581 24.1014 30.0214 23.445C29.284 22.788 28.2533 21.9753 27.7322 21.6363C27.2097 21.298 26.5319 20.936 26.2243 20.8307C25.9174 20.7267 25.3143 20.613 24.8838 20.5795C24.2168 20.5265 24.0127 20.5558 23.4966 20.7756C23.1114 20.9395 22.7118 21.231 22.3941 21.5756C22.1217 21.8735 21.7587 22.3855 21.5891 22.714C21.4202 23.0412 21.0493 23.9194 20.7668 24.665C20.4829 25.41 19.6937 27.6045 19.0109 29.5422C18.3288 31.4793 17.4254 33.9179 17.0027 34.9614C16.5808 36.005 15.8858 37.5409 15.4603 38.3759C15.0334 39.2101 14.4354 40.2586 14.1299 40.7064C13.8251 41.1528 13.3055 41.7841 12.9749 42.107C12.6442 42.43 12.1224 42.8506 11.8155 43.0403C11.5086 43.2308 10.8934 43.5649 10.4478 43.7818C10.0021 43.9974 9.24816 44.3057 8.77235 44.4647C7.96519 44.7347 7.74741 44.7563 5.50564 44.8009C3.28327 44.8456 3.03386 44.8302 2.15483 44.6049C1.6323 44.4717 1.14068 44.3078 1.06162 44.2415C0.981116 44.1752 0.917866 44.0476 0.918585 43.9583C0.920023 43.8683 1.60643 43.0152 2.44521 42.0617C3.28399 41.1082 4.64889 39.4494 5.47832 38.3766C6.30704 37.3038 7.60007 35.523 8.35188 34.4201C9.10369 33.3166 10.2472 31.5372 10.8927 30.4637C11.5395 29.3909 12.5163 27.6833 13.0647 26.6698C13.6117 25.6562 14.4943 23.9494 15.0233 22.8758C15.553 21.803 16.2675 20.2908 16.6125 19.5158C17.0602 18.5085 17.2191 18.03 17.1695 17.8361C17.1314 17.6868 16.6196 16.3455 16.0339 14.8555C15.4466 13.3649 14.9234 12.0968 14.8702 12.0375C14.8077 11.967 14.4713 12.0333 13.9085 12.2272C13.4327 12.3911 12.3898 12.629 11.5913 12.7559C10.7927 12.8815 9.73763 13.1256 9.246 13.2958C8.75438 13.4674 7.77401 13.9257 7.0682 14.3156C6.36095 14.7056 5.75792 15.0215 5.72773 15.016C5.69611 15.0118 5.01833 14.2019 4.2198 13.2156C3.42127 12.2307 2.59111 11.1865 2.37693 10.8963C1.9924 10.3773 1.98952 10.3627 2.18143 10.092C2.28852 9.93996 2.64071 9.62816 2.96342 9.39937C3.28614 9.17057 3.80077 8.88109 4.10839 8.75554C4.4153 8.63068 4.99317 8.4542 5.39279 8.36422C5.7917 8.27423 6.54567 8.14937 7.0682 8.08869C7.59001 8.02661 8.46976 7.85152 9.02247 7.69876C9.5795 7.54391 10.3759 7.21885 10.8093 6.96844C11.2391 6.72011 11.8299 6.30856 12.1217 6.05257C12.4135 5.79796 12.7147 5.60475 12.7916 5.62428C12.8685 5.64381 13.1826 6.19626 13.4895 6.85265C13.7964 7.50764 14.3628 8.72345 14.7495 9.55282C15.1347 10.3829 15.5401 11.4278 15.6522 11.8756C15.7629 12.3221 16.2006 13.7715 16.6261 15.0948C17.0516 16.418 17.4369 17.4664 17.4829 17.4253C17.5296 17.3827 17.9723 16.349 18.4654 15.1276C18.9592 13.9048 19.8669 11.4662 20.4822 9.70838C21.0974 7.94918 21.8938 5.51058 22.2525 4.28919C22.6111 3.0664 22.9626 1.8471 23.033 1.57924C23.1488 1.15374 23.1868 1.11049 23.3184 1.2514ZM23.6001 26.1396C23.9372 26.1654 24.403 26.2352 24.633 26.2924C24.863 26.351 25.1727 26.5072 25.3201 26.6412C25.5019 26.8058 25.645 27.1308 25.7614 27.6435C25.9282 28.3787 25.9246 28.4283 25.6708 29.2151C25.4818 29.8024 25.3524 30.0375 25.2029 30.0626C25.0858 30.0821 24.8867 30.3172 24.7429 30.6046C24.6042 30.8829 24.4914 31.1605 24.4935 31.2205C24.4957 31.2805 24.3965 31.4382 24.2722 31.5728C24.1011 31.7583 23.8848 31.8295 23.3766 31.8706C23.0079 31.8999 22.7067 31.9739 22.7067 32.0332C22.7067 32.0924 22.8339 32.7872 22.9906 33.5775C23.1459 34.3678 23.3349 35.1505 23.4097 35.3158C23.4837 35.4818 23.5829 35.6157 23.6289 35.6136C23.6749 35.6115 24.3785 35.4392 25.1922 35.23C26.0065 35.0221 26.8855 34.8505 27.1464 34.8505C27.4073 34.8505 27.8012 34.9363 28.0211 35.0403C28.2756 35.1602 28.4445 35.3283 28.4826 35.5006C28.5264 35.6904 28.4811 35.8138 28.3338 35.9115C28.2044 35.998 27.8221 36.0468 27.3419 36.0384C26.6419 36.0252 26.4852 36.0635 25.834 36.4102C25.4229 36.6292 25.2051 36.796 25.3316 36.7939C25.4545 36.7925 25.6177 36.8546 25.6946 36.9327C25.7715 37.0094 25.8857 37.5605 25.9483 38.1562C26.0108 38.7526 26.1438 39.5324 26.2444 39.8903C26.345 40.2481 26.432 40.917 26.4377 41.376C26.4457 41.9801 26.4018 42.2605 26.2811 42.3895C26.1675 42.5109 26.0151 42.5465 25.8067 42.5025C25.6011 42.4593 25.4171 42.2947 25.2482 42.0052C25.0887 41.7311 24.9154 41.5706 24.7738 41.5685C24.6509 41.565 24.3239 41.729 24.0479 41.9306C23.7712 42.1321 23.3443 42.3979 23.0984 42.5193C22.8526 42.642 22.3243 42.8248 21.9254 42.9266C21.4554 43.0459 20.9249 43.0955 20.4175 43.0689C19.8231 43.0376 19.5342 42.9636 19.2136 42.7599C18.9822 42.6128 18.6192 42.2486 18.4072 41.9501C18.1951 41.6522 17.9112 41.1158 17.7775 40.758C17.5813 40.2341 17.5339 39.8756 17.5375 38.9151C17.5396 37.9839 17.6022 37.4977 17.8257 36.6934C17.9831 36.1263 18.221 35.3709 18.3554 35.0137C18.5653 34.4557 18.7586 34.2137 19.7325 33.302C20.3557 32.7188 21.0795 32.0848 21.3418 31.893C21.6034 31.7025 21.7795 31.5114 21.7328 31.4702C21.6847 31.4305 21.3332 31.247 20.9487 31.0636C20.5519 30.8752 20.1688 30.6032 20.061 30.4337C19.9568 30.2698 19.8749 29.9643 19.8792 29.7564C19.8828 29.5471 19.9661 29.1084 20.0646 28.7812C20.1976 28.3411 20.4441 27.9588 21.0062 27.3178C21.4252 26.8407 21.9161 26.3921 22.0987 26.3203C22.2805 26.2478 22.5543 26.1661 22.7082 26.1396C22.8598 26.1124 23.2616 26.1124 23.6001 26.1396ZM37.086 32.4824C37.5783 32.4712 37.7839 32.5075 37.7832 32.6024C37.7832 32.677 37.4784 33.7861 37.1061 35.0682C36.7353 36.3495 36.4089 37.4844 36.3816 37.5884C36.3392 37.7544 36.4226 37.7781 37.0587 37.7781C37.4576 37.7781 37.8091 37.8269 37.8407 37.8862C37.8709 37.9455 37.8083 38.2713 37.7012 38.6082C37.5942 38.9465 37.4296 39.2401 37.3383 39.2604C37.2456 39.282 37.0889 39.4564 36.9897 39.6496C36.8912 39.8428 36.7755 40.17 36.7331 40.3792C36.6749 40.6631 36.7008 40.7998 36.838 40.9212C37.0069 41.0719 37.0055 41.1772 36.6361 43.5768L33.273 43.6158C31.4244 43.6374 29.7986 43.6256 29.6599 43.5886C29.4141 43.5237 29.4098 43.4903 29.4644 40.8668L28.0125 40.7587V40.1539C28.0125 39.771 28.0736 39.4808 28.18 39.3636C28.2713 39.2604 28.4359 39.1795 28.543 39.1829C28.6501 39.185 28.7593 39.1264 28.7845 39.0518C28.8103 38.9772 28.8606 38.7581 28.962 38.212L27.9011 38.2664C26.8963 38.3173 26.8402 38.3089 26.8402 38.1039C26.8402 37.9846 26.915 37.8618 27.0077 37.8332C27.099 37.8025 27.5899 37.7781 28.0966 37.7781C28.6033 37.7767 29.1187 37.7502 29.2416 37.7188C29.427 37.6714 29.5787 37.2654 30.135 35.3255C30.5037 34.0421 30.83 32.9462 30.8609 32.8925C30.8911 32.8374 32.1475 32.7265 33.6533 32.6456C35.1562 32.564 36.7015 32.49 37.086 32.4824ZM35.8296 39.2667C36.0754 39.2436 35.8239 39.2255 35.2712 39.2255C34.7184 39.2269 34.5172 39.245 34.8241 39.268C35.1317 39.2897 35.5838 39.2897 35.8296 39.2667ZM35.2712 40.8926C35.517 40.8689 35.366 40.8494 34.9362 40.8494C34.5064 40.848 34.3052 40.8675 34.4892 40.8919C34.6739 40.9149 35.0254 40.9149 35.2712 40.8926Z" fill="#FFF5E6"/>
</svg>
